<svg id="visual" viewBox="0 0 1000 1000" width="1000" height="1000" xmlns="http://www.w3.org/2000/svg" xmlns:xlink="http://www.w3.org/1999/xlink" version="1.1"><path d="M0 131L500 131L500 11L1000 11L1000 111L1000 0L1000 0L500 0L500 0L0 0Z" fill="#ffebeb"></path><path d="M0 191L500 191L500 81L1000 81L1000 111L1000 109L1000 9L500 9L500 129L0 129Z" fill="#fce7eb"></path><path d="M0 351L500 351L500 261L1000 261L1000 161L1000 109L1000 79L500 79L500 189L0 189Z" fill="#f8e3eb"></path><path d="M0 391L500 391L500 301L1000 301L1000 531L1000 159L1000 259L500 259L500 349L0 349Z" fill="#f3e0ec"></path><path d="M0 471L500 471L500 381L1000 381L1000 551L1000 529L1000 299L500 299L500 389L0 389Z" fill="#eddded"></path><path d="M0 581L500 581L500 521L1000 521L1000 611L1000 549L1000 379L500 379L500 469L0 469Z" fill="#e5daee"></path><path d="M0 641L500 641L500 601L1000 601L1000 711L1000 609L1000 519L500 519L500 579L0 579Z" fill="#dbd8ee"></path><path d="M0 671L500 671L500 711L1000 711L1000 711L1000 709L1000 599L500 599L500 639L0 639Z" fill="#d1d6ee"></path><path d="M0 721L500 721L500 731L1000 731L1000 811L1000 709L1000 709L500 709L500 669L0 669Z" fill="#c5d5ec"></path><path d="M0 781L500 781L500 741L1000 741L1000 861L1000 809L1000 729L500 729L500 719L0 719Z" fill="#bad3e9"></path><path d="M0 921L500 921L500 991L1000 991L1000 971L1000 859L1000 739L500 739L500 779L0 779Z" fill="#afd2e4"></path><path d="M0 1001L500 1001L500 1001L1000 1001L1000 1001L1000 969L1000 989L500 989L500 919L0 919Z" fill="#a6d0dd"></path></svg>